# xmcd
#
# Track frame offsets:
#	183
#	18580
#	33300
#
# Disc length: 988 seconds
#
# Revision: 1
# Processed by: cddbd v1.4PL0 Copyright (c) Steve Scherf et al.
# Submitted via: audiograbber 1.82.00
#
DISCID=1b03da03
DTITLE=Blue Blot - I'll Be Home On Christmas Day [CD Single)
DYEAR=1990
DGENRE=Blues
TTITLE0=I'll Be Home On Christmas Day
TTITLE1=Dance To The Blunk
TTITLE2=D.J. Play My Blues
EXTD=
EXTT0=
EXTT1=
EXTT2=
PLAYORDER=
